<svg width="53" height="54" fill="none" xmlns="http://www.w3.org/2000/svg"><g clip-path="url(#clip0)"><path d="M44.862.164H8.096C3.896.164.48 3.698.48 8.042v38.03c0 4.343 3.417 7.878 7.617 7.878h15.336V34.936h-6.094V25.48h6.094v-6.408c0-5.214 4.1-9.455 9.14-9.455h9.243v9.455h-9.242v6.408h9.242l-1.524 9.455h-7.718V53.95h12.289c4.2 0 7.617-3.535 7.617-7.879V8.042c0-4.344-3.417-7.878-7.617-7.878z" fill="#C58264"/></g><defs><clipPath id="clip0"><path fill="#fff" transform="translate(.479 .164)" d="M0 0h52v53.786H0z"/></clipPath></defs></svg>