<svg width="81" height="66" fill="none" xmlns="http://www.w3.org/2000/svg"><path d="M79.44 11.453l-9.035-9.64C69.295.58 67.281-.223 65.411.057l-2.77.399c-.65.093-1.1.7-1.008 1.354.093.655.693 1.11 1.343 1.016l2.77-.398a3.35 3.35 0 011.226.052l4.834 29.82-29.863-17.954 4.652-8.151a2.7 2.7 0 011.936-1.29l8.767-1.262c.65-.094 1.1-.7 1.007-1.355a1.188 1.188 0 00-1.342-1.016l-8.768 1.262a5.065 5.065 0 00-3.64 2.436l-.01.02-4.203 7.363-3.863-6.908a5.056 5.056 0 00-3.655-2.464L15.609.5a5.73 5.73 0 00-4.976 1.74s-9.234 9.859-9.32 9.964a5.826 5.826 0 00-.98 5.627l6.18 17.658c.048.097.089.258.298.466l29.41 28.438c2.126 2.054 5.675 2.224 7.981.009L74.2 35.52c.12-.136.198-.192.309-.475l6.18-17.66c.676-1.743.25-4.447-1.248-5.933zm-1.724 1.645c.691.648 1.194 2.268.734 3.49L73.812 29.84 69.715 4.562l8 8.536zM15.273 2.87L32.49 5.35a2.693 2.693 0 011.93 1.286l4.316 7.718L9.223 32.697 14.05 2.924c.4-.092.814-.111 1.224-.053zM3.305 13.544l8-8.537-4.097 25.278-4.638-13.25a3.426 3.426 0 01.735-3.49zM42.563 62.67a3.395 3.395 0 01-1.045.687V26.965c0-.66-.531-1.197-1.187-1.197-.655 0-1.187.536-1.187 1.197v36.478a3.385 3.385 0 01-1.282-.778L9.561 35.3l29.584-18.384v4.28c0 .661.53 1.197 1.186 1.197.656 0 1.187-.536 1.187-1.197v-4.317l29.921 17.99L42.563 62.67z" fill="#fff"/></svg>