<svg width="81" height="66" fill="none" xmlns="http://www.w3.org/2000/svg"><path d="M79.44 11.35l-9.035-9.552C69.295.574 67.281-.222 65.411.055l-2.77.396a1.187 1.187 0 00.335 2.35l2.77-.396a3.38 3.38 0 011.226.052l4.834 29.557L41.943 14.22l4.652-8.08a2.701 2.701 0 011.936-1.278l8.767-1.25a1.187 1.187 0 10-.335-2.35l-8.768 1.25a5.066 5.066 0 00-3.64 2.415l-.01.019-4.203 7.299-3.863-6.847a5.058 5.058 0 00-3.655-2.442L15.609.495a5.758 5.758 0 00-4.976 1.725s-9.234 9.772-9.32 9.875a5.734 5.734 0 00-.98 5.578l6.18 17.501c.048.096.089.256.298.462l29.41 28.186c2.126 2.035 5.675 2.204 7.981.008L74.2 35.205c.12-.135.198-.19.309-.471l6.18-17.503c.676-1.728.25-4.408-1.248-5.88zm-1.724 1.631c.691.643 1.194 2.248.734 3.46l-4.638 13.135-4.097-25.054 8 8.46zM15.273 2.846L32.49 5.304a2.695 2.695 0 011.93 1.274l4.316 7.65L9.223 32.407l4.827-29.51c.4-.09.814-.11 1.224-.051zM3.305 13.424l8-8.461-4.097 25.054L2.57 16.883a3.373 3.373 0 01.735-3.459zm39.258 48.69a3.399 3.399 0 01-1.045.68V26.726a1.187 1.187 0 10-2.374 0V62.88a3.392 3.392 0 01-1.282-.77L9.561 34.985l29.584-18.222v4.243a1.187 1.187 0 002.373 0v-4.279l29.921 17.83-28.876 27.556z" fill="#000"/></svg>