<svg width="120" height="120" fill="none" xmlns="http://www.w3.org/2000/svg"><g clip-path="url(#clip0)" fill="#000"><path d="M89.531 0H55.312a2.344 2.344 0 100 4.687h34.22c14.215 0 25.78 11.565 25.78 25.782V89.53c0 14.216-11.565 25.781-25.78 25.781H30.468c-14.216 0-25.782-11.565-25.782-25.78V30.468c0-14.217 11.566-25.782 25.782-25.782h6.093a2.344 2.344 0 100-4.687H30.47C13.668 0 0 13.668 0 30.469V89.53C0 106.332 13.668 120 30.469 120H89.53c16.802 0 30.47-13.668 30.47-30.469V30.47C120 13.669 106.332 0 89.531 0z"/><path d="M83.438 110.625h6.093c11.631 0 21.094-9.463 21.094-21.094V30.47c0-11.631-9.463-21.094-21.094-21.094H30.47c-11.631 0-21.094 9.463-21.094 21.094v59.06c0 11.631 9.463 21.094 21.094 21.094h34.218a2.343 2.343 0 100-4.688H30.47c-9.047 0-16.407-7.36-16.407-16.406V30.47c0-9.047 7.36-16.407 16.407-16.407h59.06c9.047 0 16.407 7.36 16.407 16.407v59.06c0 9.046-7.36 16.406-16.407 16.406h-6.094a2.344 2.344 0 000 4.688z"/><path d="M85.781 60c0-14.215-11.566-25.781-25.781-25.781-14.215 0-25.781 11.566-25.781 25.78 0 14.216 11.566 25.782 25.781 25.782 14.215 0 25.781-11.566 25.781-25.781zM60 81.094c-11.63 0-21.094-9.463-21.094-21.094 0-11.631 9.463-21.094 21.094-21.094 11.63 0 21.094 9.463 21.094 21.094 0 11.63-9.463 21.094-21.094 21.094z"/><path d="M60 43.594c-9.046 0-16.406 7.36-16.406 16.406S50.954 76.406 60 76.406 76.406 69.046 76.406 60 69.046 43.594 60 43.594zm0 28.125c-6.462 0-11.719-5.257-11.719-11.72 0-6.46 5.257-11.718 11.719-11.718S71.719 53.538 71.719 60 66.462 71.719 60 71.719zM98.906 30.47c0-5.17-4.206-9.375-9.375-9.375-5.17 0-9.375 4.205-9.375 9.375 0 5.169 4.205 9.375 9.375 9.375s9.375-4.206 9.375-9.375zm-14.062 0a4.692 4.692 0 014.687-4.688 4.692 4.692 0 014.688 4.688 4.693 4.693 0 01-4.688 4.687 4.693 4.693 0 01-4.687-4.687zM45.938 4.687a2.344 2.344 0 100-4.687h-.001a2.343 2.343 0 10.001 4.687zm28.124 101.25a2.343 2.343 0 10.001 4.688 2.344 2.344 0 100-4.688h-.001z"/></g><defs><clipPath id="clip0"><path fill="#fff" d="M0 0h120v120H0z"/></clipPath></defs></svg>