<svg width="55" height="55" fill="none" xmlns="http://www.w3.org/2000/svg"><g clip-path="url(#clip0)" fill="#C58264"><path d="M39.966.22H15.201C7.141.22.584 6.753.584 14.78v24.668c0 8.028 6.557 14.56 14.617 14.56h24.766c8.06 0 14.617-6.532 14.617-14.56V14.78c0-8.028-6.558-14.56-14.618-14.56zm-12.382 41.6c-8.142 0-14.765-6.597-14.765-14.706 0-8.11 6.623-14.707 14.765-14.707 8.141 0 14.765 6.597 14.765 14.707S35.725 41.82 27.584 41.82zm15.118-25.945c-2.406 0-4.363-1.949-4.363-4.345 0-2.397 1.957-4.346 4.363-4.346 2.406 0 4.363 1.95 4.363 4.346s-1.957 4.345-4.363 4.345z"/><path d="M27.584 15.56c-6.396 0-11.6 5.183-11.6 11.554 0 6.37 5.204 11.553 11.6 11.553s11.6-5.183 11.6-11.553c0-6.371-5.204-11.554-11.6-11.554zm15.118-5.222c-.66 0-1.197.534-1.197 1.189s.537 1.189 1.197 1.189 1.198-.533 1.198-1.189-.538-1.189-1.198-1.189z"/></g><defs><clipPath id="clip0"><path fill="#fff" transform="translate(.584 .22)" d="M0 0h54v53.786H0z"/></clipPath></defs></svg>