<svg width="59" height="53" fill="none" xmlns="http://www.w3.org/2000/svg"><path d="M.764 15.016L28.852 30.96c.282.16.595.243.912.243.318 0 .63-.083.912-.243l28.088-15.942v27.696c0 2.389-.837 4.687-2.34 6.423-1.503 1.737-3.558 2.78-5.743 2.914l-.485.015H9.332c-2.188 0-4.294-.914-5.885-2.554-1.59-1.64-2.546-3.884-2.67-6.268l-.013-.53V15.016zM9.332.27h40.864c2.189 0 4.294.914 5.885 2.555 1.59 1.64 2.546 3.883 2.67 6.268l.013.53v.529l-29 16.459-29-16.46v-.529c0-2.388.837-4.687 2.34-6.423C4.607 1.464 6.662.421 8.847.286L9.332.27h40.864H9.332z" fill="#C58264"/></svg>