<svg width="18" height="19" fill="none" xmlns="http://www.w3.org/2000/svg"><path d="M17 19C17 4.6 6.333 7 1 10l16-9v17.182" stroke="#C58264" stroke-linejoin="round"/><path d="M7.26 7.188l2.784-1.125m4.87.562l-3.48-1.688 2.088-1.205m1.391 2.893c.464.75 1.391 2.363 1.391 2.813v2.25L13.522 7.75l-2.358-2.14m3.75 1.015l.105.086M11.164 5.61l3.053-1.235 2.087-2.25-2.782 1.607M11.164 5.61l-1.12.452m0 1.125l2.086.563-2.087-1.688m3.479-2.33v2.893l2.782-3.938-.595 1.446m-.1 5.304l-1.49-2.25m0 0l-.597 1.125-4.174-1.124v-.563l-1.391.563c2.782.187 8.347.45 8.347 0s-.787-1.452-1.181-1.896m-1.005 1.896l1.005-1.896m.586-1.16l-.1.243-.486.917m.586-1.16l.595 2.493-1.285.086m1.285 1.039L15.02 6.71" stroke="#C58264" stroke-linejoin="round"/><path d="M15.609 10.563v-2.25l-9.74-1.126" stroke="#C58264" stroke-linejoin="round"/></svg>