<svg width="78" height="80" fill="none" xmlns="http://www.w3.org/2000/svg"><path d="M25.797 28.636H48.14c.561 0 1.015-.508 1.015-1.136 0-.628-.454-1.137-1.015-1.137H25.797c-.562 0-1.016.509-1.016 1.137s.454 1.136 1.016 1.136zM37.984 40H25.797c-.562 0-1.016.508-1.016 1.136 0 .628.454 1.137 1.016 1.137h12.187c.562 0 1.016-.509 1.016-1.137S38.546 40 37.984 40z" fill="#fff"/><path d="M59.487 19.546c-.059 0-.116.016-.174.02v-.02c0-2.507-1.823-4.546-4.063-4.546H18.687c-2.239 0-4.062 2.039-4.062 4.546v44.318c0 .46.248.874.627 1.05a.912.912 0 00.389.086.964.964 0 00.718-.333l9.858-11.03H55.25c2.24 0 4.063-2.04 4.063-4.546V30.243l2.923-3.271v-.001c.724-.81 1.139-1.931 1.139-3.075 0-2.4-1.744-4.35-3.888-4.35zM57.281 49.09c0 1.253-.91 2.273-2.031 2.273H25.797c-.27 0-.528.12-.718.333l-8.423 9.423V19.545c0-1.252.91-2.272 2.031-2.272H55.25c1.12 0 2.031 1.02 2.031 2.273v.776a3.944 3.944 0 00-.543.497l-11.05 12.363H25.796c-.562 0-1.016.508-1.016 1.136 0 .628.454 1.137 1.016 1.137h18.26l-.975 5.458c-.067.373.038.758.278 1.027a.965.965 0 00.718.333.93.93 0 00.198-.022l5.077-1.137a.981.981 0 00.52-.31l7.408-8.289v16.576zm-8.627-10.138l-3.28.735.656-3.675 9.22-10.316 2.626 2.94-9.222 10.316zM60.8 25.365l-1.487 1.665-2.627-2.94 1.488-1.665a1.777 1.777 0 011.313-.607c1.024 0 1.857.932 1.857 2.078a2.23 2.23 0 01-.544 1.469z" fill="#fff"/></svg>