<svg width="16" height="18" fill="none" xmlns="http://www.w3.org/2000/svg"><g clip-path="url(#clip0)"><path d="M15.597 13.21l-2.237-2.512c-.8-.897-2.158-.538-2.478.628-.24.808-1.038 1.256-1.758 1.077-1.598-.449-3.756-2.781-4.155-4.665-.24-.808.24-1.705.959-1.974 1.039-.359 1.358-1.884.56-2.781L4.25.471c-.64-.628-1.599-.628-2.158 0L.574 2.176C-.945 3.97.734 8.725 4.489 12.94c3.756 4.216 7.992 6.19 9.59 4.396l1.518-1.705c.56-.717.56-1.794 0-2.422z" fill="#C58264"/></g><defs><clipPath id="clip0"><path fill="#fff" d="M0 0h16v18H0z"/></clipPath></defs></svg>