<svg width="62" height="62" fill="none" xmlns="http://www.w3.org/2000/svg"><g clip-path="url(#clip0)" fill="#fff"><path d="M30.952 0C20.896 0 12.715 8.18 12.715 18.237v25.526C12.715 53.82 20.895 62 30.952 62c10.056 0 18.237-8.18 18.237-18.237V18.237C49.189 8.18 41.008 0 30.952 0zm14.517 43.763c0 8.005-6.513 14.517-14.517 14.517-8.005 0-14.517-6.512-14.517-14.517V18.237c0-8.005 6.512-14.517 14.517-14.517 8.004 0 14.517 6.512 14.517 14.517v25.526z"/><path d="M30.952 12.334a1.86 1.86 0 00-1.86 1.86v8.56a1.86 1.86 0 003.72 0v-8.56a1.86 1.86 0 00-1.86-1.86z"/></g><defs><clipPath id="clip0"><path fill="#fff" d="M0 0h62v62H0z"/></clipPath></defs></svg>