<svg width="81" height="66" viewBox="0 0 81 66" fill="none" xmlns="http://www.w3.org/2000/svg">
<path d="M79.4403 11.4525L70.4051 1.81381C69.2959 0.579102 67.2812 -0.22424 65.411 0.0557798L62.6403 0.454737C61.9914 0.54813 61.5406 1.15463 61.6331 1.80918C61.7257 2.46373 62.3257 2.9184 62.9756 2.82533L65.7458 2.42653C66.1566 2.36762 66.5715 2.38694 66.972 2.4789L71.8062 32.3007L41.9431 14.3464L46.5954 6.19483C47.0179 5.49143 47.723 5.02143 48.5311 4.90489L57.2983 3.64272C57.9472 3.54933 58.398 2.94283 58.3054 2.28828C58.2127 1.63357 57.612 1.17841 56.963 1.27213L48.1954 2.53429C46.6737 2.75381 45.3471 3.64176 44.5558 4.96986C44.5522 4.97625 44.5482 4.98279 44.5448 4.98918L40.3419 12.3532L36.4793 5.44497C36.4739 5.43539 36.4685 5.42597 36.4628 5.41655C35.6703 4.08606 34.3438 3.1981 32.8247 2.98083L15.6077 0.500875C14.5625 0.350488 13.497 0.493052 12.5238 0.91404C11.8054 1.22647 11.1701 1.67156 10.6321 2.2407C10.6321 2.2407 1.39813 12.1 1.31268 12.2046C0.0313362 13.7734 -0.346675 15.893 0.332606 17.8321L6.5126 35.49C6.56007 35.5871 6.60073 35.7485 6.81007 35.9565L36.2203 64.394C38.3458 66.4479 41.8946 66.618 44.2012 64.4026L74.1994 35.52C74.3184 35.3841 74.3966 35.3284 74.5078 35.0449L80.688 17.3853C81.3643 15.6418 80.9381 12.9377 79.4403 11.4525ZM77.7155 13.0976C78.4072 13.7461 78.91 15.3659 78.45 16.5881L73.8123 29.8403L69.7147 4.56245L77.7155 13.0976ZM15.2725 2.87147L32.4905 5.35158C33.2948 5.46668 33.9976 5.93493 34.4209 6.63705L38.7365 14.3555L9.22229 32.6971L14.0485 2.92351C14.4488 2.83187 14.8632 2.81256 15.2725 2.87147ZM3.3048 13.5445L11.3057 5.00738L7.20818 30.2853L2.57045 17.0344C2.14434 15.8179 2.42536 14.481 3.3048 13.5445ZM42.5628 62.6703C42.25 62.9714 41.8946 63.1986 41.5178 63.3566V26.9653C41.5178 26.3041 40.9866 25.768 40.3311 25.768C39.6756 25.768 39.1444 26.3041 39.1444 26.9653V63.4428C38.6793 63.2869 38.2398 63.03 37.8624 62.6652L9.56074 35.2992L39.1445 16.9145V21.1951C39.1445 21.8563 39.6759 22.3924 40.3313 22.3924C40.9866 22.3924 41.518 21.8563 41.518 21.1951V16.8782L71.4393 34.8678L42.5628 62.6703Z" fill="white"/>
</svg>
