<svg width="81" height="66" viewBox="0 0 81 66" fill="none" xmlns="http://www.w3.org/2000/svg">
<path d="M79.4403 11.3509L70.4051 1.79771C69.2959 0.573963 67.2812 -0.222251 65.411 0.0552848L62.6403 0.450702C61.9914 0.543266 61.5406 1.14438 61.6331 1.79313C61.7257 2.44187 62.3257 2.89251 62.9756 2.80026L65.7458 2.405C66.1566 2.34661 66.5715 2.36576 66.972 2.4569L71.8062 32.0141L41.9431 14.2191L46.5954 6.13986C47.0179 5.4427 47.723 4.97687 48.5311 4.86136L57.2983 3.6104C57.9472 3.51783 58.398 2.91672 58.3054 2.26797C58.2127 1.61907 57.612 1.16796 56.963 1.26084L48.1954 2.51181C46.6737 2.72937 45.3471 3.60945 44.5558 4.92576C44.5522 4.93209 44.5482 4.93858 44.5448 4.94491L40.3419 12.2436L36.4793 5.39666C36.4739 5.38716 36.4685 5.37783 36.4628 5.36849C35.6703 4.0498 34.3438 3.16973 32.8247 2.95437L15.6077 0.49643C14.5625 0.347378 13.497 0.488677 12.5238 0.905929C11.8054 1.21559 11.1701 1.65673 10.6321 2.22082C10.6321 2.22082 1.39813 11.9926 1.31268 12.0963C0.0313362 13.6512 -0.346675 15.752 0.332606 17.6739L6.5126 35.1751C6.56007 35.2713 6.60073 35.4312 6.81007 35.6374L36.2203 63.8226C38.3458 65.8582 41.8946 66.0269 44.2012 63.8312L74.1994 35.2048C74.3184 35.0702 74.3966 35.0149 74.5078 34.7339L80.688 17.231C81.3643 15.503 80.9381 12.8229 79.4403 11.3509ZM77.7155 12.9814C78.4072 13.6241 78.91 15.2295 78.45 16.441L73.8123 29.5755L69.7147 4.52196L77.7155 12.9814ZM15.2725 2.84599L32.4905 5.30409C33.2948 5.41818 33.9976 5.88226 34.4209 6.57816L38.7365 14.2281L9.22229 32.407L14.0485 2.89757C14.4488 2.80675 14.8632 2.7876 15.2725 2.84599ZM3.3048 13.4243L11.3057 4.96295L7.20818 30.0166L2.57045 16.8832C2.14434 15.6775 2.42536 14.3525 3.3048 13.4243ZM42.5628 62.1142C42.25 62.4126 41.8946 62.6378 41.5178 62.7944V26.7261C41.5178 26.0707 40.9866 25.5393 40.3311 25.5393C39.6756 25.5393 39.1444 26.0707 39.1444 26.7261V62.8799C38.6793 62.7253 38.2398 62.4707 37.8624 62.1091L9.56074 34.986L39.1445 16.7644V21.007C39.1445 21.6624 39.6759 22.1937 40.3313 22.1937C40.9866 22.1937 41.518 21.6624 41.518 21.007V16.7285L71.4393 34.5584L42.5628 62.1142Z" fill="black"/>
</svg>
