<svg width="120" height="120" viewBox="0 0 120 120" fill="none" xmlns="http://www.w3.org/2000/svg">
<g clip-path="url(#clip0)">
<path d="M89.5312 -9.15527e-05H55.3125C54.0179 -9.15527e-05 52.9688 1.0491 52.9688 2.34366C52.9688 3.63821 54.0179 4.68741 55.3125 4.68741H89.5312C103.747 4.68741 115.312 16.2523 115.312 30.4687V89.5312C115.312 103.747 103.747 115.312 89.5312 115.312H30.4688C16.2534 115.312 4.6875 103.747 4.6875 89.5312V30.4687C4.6875 16.2523 16.2534 4.68741 30.4688 4.68741H36.5625C37.8571 4.68741 38.9062 3.63821 38.9062 2.34366C38.9062 1.0491 37.8571 -9.15527e-05 36.5625 -9.15527e-05H30.4688C13.6679 -9.15527e-05 0 13.6678 0 30.4687V89.5312C0 106.332 13.6679 120 30.4688 120H89.5312C106.332 120 120 106.332 120 89.5312V30.4687C120 13.6678 106.332 -9.15527e-05 89.5312 -9.15527e-05Z" fill="black"/>
<path d="M83.4375 110.625H89.5312C101.162 110.625 110.625 101.162 110.625 89.5312V30.4687C110.625 18.8378 101.162 9.37491 89.5312 9.37491H30.4688C18.8379 9.37491 9.375 18.8378 9.375 30.4687V89.5312C9.375 101.162 18.8379 110.625 30.4688 110.625H64.6875C65.9821 110.625 67.0312 109.576 67.0312 108.281C67.0312 106.987 65.9821 105.937 64.6875 105.937H30.4688C21.4224 105.937 14.0625 98.5775 14.0625 89.5312V30.4687C14.0625 21.4223 21.4224 14.0624 30.4688 14.0624H89.5312C98.5776 14.0624 105.938 21.4223 105.938 30.4687V89.5312C105.938 98.5775 98.5776 105.937 89.5312 105.937H83.4375C82.1429 105.937 81.0938 106.987 81.0938 108.281C81.0938 109.576 82.1429 110.625 83.4375 110.625Z" fill="black"/>
<path d="M85.7812 59.9999C85.7812 45.7845 74.2154 34.2187 60 34.2187C45.7846 34.2187 34.2188 45.7845 34.2188 59.9999C34.2188 74.2153 45.7846 85.7812 60 85.7812C74.2154 85.7812 85.7812 74.2153 85.7812 59.9999ZM60 81.0937C48.3691 81.0937 38.9062 71.6308 38.9062 59.9999C38.9062 48.369 48.3691 38.9062 60 38.9062C71.6309 38.9062 81.0938 48.369 81.0938 59.9999C81.0938 71.6308 71.6309 81.0937 60 81.0937Z" fill="black"/>
<path d="M60 43.5937C50.9537 43.5937 43.5938 50.9536 43.5938 59.9999C43.5938 69.0462 50.9537 76.4062 60 76.4062C69.0463 76.4062 76.4062 69.0462 76.4062 59.9999C76.4062 50.9536 69.0463 43.5937 60 43.5937ZM60 71.7187C53.5382 71.7187 48.2812 66.4617 48.2812 59.9999C48.2812 53.5381 53.5382 48.2812 60 48.2812C66.4618 48.2812 71.7188 53.5381 71.7188 59.9999C71.7188 66.4617 66.4618 71.7187 60 71.7187Z" fill="black"/>
<path d="M98.9062 30.4696C98.9062 25.2996 94.7003 21.0946 89.5312 21.0946C84.3613 21.0946 80.1562 25.2996 80.1562 30.4696C80.1562 35.6386 84.3613 39.8446 89.5312 39.8446C94.7003 39.8446 98.9062 35.6386 98.9062 30.4696ZM84.8438 30.4696C84.8438 27.8841 86.9467 25.7821 89.5312 25.7821C92.1158 25.7821 94.2188 27.8841 94.2188 30.4696C94.2188 33.0541 92.1158 35.1571 89.5312 35.1571C86.9467 35.1571 84.8438 33.0541 84.8438 30.4696Z" fill="black"/>
<path d="M45.9384 4.68741C47.233 4.68741 48.2822 3.63821 48.2822 2.34366C48.2822 1.0491 47.233 -9.15527e-05 45.9384 -9.15527e-05H45.9366C44.6429 -9.15527e-05 43.5938 1.0491 43.5938 2.34366C43.5938 3.63821 44.6439 4.68741 45.9384 4.68741Z" fill="black"/>
<path d="M74.0616 105.937C72.767 105.937 71.7188 106.987 71.7188 108.281C71.7188 109.576 72.7689 110.625 74.0634 110.625C75.358 110.625 76.4072 109.576 76.4072 108.281C76.4072 106.987 75.358 105.937 74.0634 105.937H74.0616Z" fill="black"/>
</g>
<defs>
<clipPath id="clip0">
<rect width="120" height="120" fill="white"/>
</clipPath>
</defs>
</svg>
