<svg width="55" height="55" viewBox="0 0 55 55" fill="none" xmlns="http://www.w3.org/2000/svg">
<g clip-path="url(#clip0)">
<path d="M39.9664 0.220703H15.201C7.14092 0.220703 0.58374 6.75195 0.58374 14.7802V39.448C0.58374 47.4758 7.14092 54.0071 15.201 54.0071H39.9668C48.0265 54.0071 54.5836 47.4758 54.5836 39.448V14.7802C54.5836 6.75195 48.0265 0.220703 39.9664 0.220703V0.220703ZM27.5837 41.8207C19.442 41.8207 12.8185 35.2234 12.8185 27.1139C12.8185 19.0044 19.442 12.4071 27.5837 12.4071C35.7254 12.4071 42.3489 19.0044 42.3489 27.1139C42.3489 35.2234 35.7254 41.8207 27.5837 41.8207ZM42.7019 15.8754C40.2959 15.8754 38.339 13.9262 38.339 11.5297C38.339 9.13326 40.2959 7.18365 42.7019 7.18365C45.1079 7.18365 47.0653 9.13326 47.0653 11.5297C47.0653 13.9262 45.1079 15.8754 42.7019 15.8754Z" fill="#C58264"/>
<path d="M27.5836 15.5601C21.1879 15.5601 15.9841 20.7429 15.9841 27.1137C15.9841 33.4841 21.1879 38.6673 27.5836 38.6673C33.9797 38.6673 39.1831 33.4841 39.1831 27.1137C39.1831 20.7429 33.9797 15.5601 27.5836 15.5601Z" fill="#C58264"/>
<path d="M42.7019 10.3384C42.0419 10.3384 41.5046 10.8718 41.5046 11.527C41.5046 12.1823 42.0419 12.7157 42.7019 12.7157C43.3623 12.7157 43.8995 12.1827 43.8995 11.527C43.8995 10.8714 43.3623 10.3384 42.7019 10.3384Z" fill="#C58264"/>
</g>
<defs>
<clipPath id="clip0">
<rect width="54" height="53.7865" fill="white" transform="translate(0.58374 0.220703)"/>
</clipPath>
</defs>
</svg>
