<svg width="59" height="53" viewBox="0 0 59 53" fill="none" xmlns="http://www.w3.org/2000/svg">
<path d="M0.76416 15.0156L28.852 30.9597C29.1337 31.1196 29.4466 31.203 29.7642 31.203C30.0817 31.203 30.3946 31.1196 30.6763 30.9597L58.7642 15.0185V42.7141C58.7643 45.1028 57.927 47.401 56.4239 49.1373C54.9209 50.8736 52.8661 51.9163 50.6811 52.0515L50.196 52.0659H9.33234C7.1438 52.066 5.03816 51.1521 3.44737 49.5116C1.85658 47.8711 0.901248 45.6284 0.777342 43.2436L0.76416 42.7141V15.0156ZM9.33234 0.271484H50.196C52.3845 0.271328 54.4902 1.18524 56.081 2.82573C57.6717 4.46622 58.6271 6.70894 58.751 9.0938L58.7642 9.62325V10.1527L29.7642 26.6118L0.76416 10.1527V9.62325C0.764017 7.23456 1.60135 4.93635 3.10439 3.20008C4.60742 1.46381 6.66222 0.421109 8.84725 0.285872L9.33234 0.271484H50.196H9.33234Z" fill="#C58264"/>
</svg>
