<svg width="18" height="19" viewBox="0 0 18 19" fill="none" xmlns="http://www.w3.org/2000/svg">
<path d="M17 19C17 4.6 6.33333 7 1 10L17 1V18.1818" stroke="#C58264" stroke-linejoin="round"/>
<path d="M7.26093 7.1875L10.0435 6.0625M14.9131 6.625L11.4348 4.9375L13.5218 3.73214M14.9131 6.625C15.3769 7.375 16.3044 8.9875 16.3044 9.4375C16.3044 9.8875 16.3044 11.125 16.3044 11.6875L13.5218 7.75L11.1635 5.60968M14.9131 6.625L15.0192 6.71079M11.1635 5.60968L14.2174 4.375L16.3044 2.125L13.5218 3.73214M11.1635 5.60968L10.0435 6.0625M10.0435 7.1875L12.1305 7.75L10.0435 6.0625M13.5218 3.73214V6.625L16.3044 2.6875L15.7087 4.13263M15.6088 9.4375L14.1181 7.1875M14.1181 7.1875L13.5218 8.3125L9.34788 7.1875V6.625L7.95658 7.1875C10.7392 7.375 16.3044 7.6375 16.3044 7.1875C16.3044 6.7375 15.5167 5.73616 15.1229 5.29174M14.1181 7.1875L15.1229 5.29174M15.7087 4.13263L15.6088 4.375L15.1229 5.29174M15.7087 4.13263L16.3044 6.625L15.0192 6.71079M16.3044 7.75L15.0192 6.71079" stroke="#C58264" stroke-linejoin="round"/>
<path d="M15.6087 10.5625V8.3125L5.86957 7.1875" stroke="#C58264" stroke-linejoin="round"/>
</svg>
