<svg width="78" height="80" viewBox="0 0 78 80" fill="none" xmlns="http://www.w3.org/2000/svg">
<path d="M25.7968 28.6361H48.1406C48.702 28.6361 49.1562 28.1278 49.1562 27.4997C49.1562 26.8716 48.702 26.3633 48.1406 26.3633H25.7968C25.2354 26.3633 24.7811 26.8716 24.7811 27.4997C24.7812 28.1279 25.2355 28.6361 25.7968 28.6361Z" fill="white"/>
<path d="M37.9843 40H25.7968C25.2354 40 24.7811 40.5083 24.7811 41.1364C24.7811 41.7645 25.2354 42.2728 25.7968 42.2728H37.9843C38.5457 42.2728 39 41.7645 39 41.1364C39 40.5083 38.5457 40 37.9843 40Z" fill="white"/>
<path d="M59.4871 19.5455C59.4282 19.5455 59.3712 19.562 59.3126 19.5651V19.5455C59.3126 17.0386 57.4896 15 55.25 15H18.6875C16.448 15 14.625 17.0386 14.625 19.5455V63.8636C14.625 64.3231 14.8729 64.738 15.2518 64.9134C15.3768 64.9722 15.5096 65 15.6406 65C15.9044 65 16.1642 64.8846 16.3587 64.6671L26.2174 53.6363H55.25C57.4896 53.6363 59.3126 51.5978 59.3126 49.0909V30.2427L62.2364 26.9718C62.2364 26.9718 62.2364 26.9718 62.2364 26.9707C62.9604 26.1606 63.375 25.0398 63.375 23.8956C63.375 21.4964 61.6314 19.5455 59.4871 19.5455ZM57.2812 49.0909C57.2812 50.3437 56.3707 51.3635 55.25 51.3635H25.7968C25.5271 51.3635 25.2692 51.4834 25.0787 51.6965L16.6562 61.1204V19.5455C16.6562 18.2926 17.5668 17.2728 18.6874 17.2728H55.2499C56.3708 17.2728 57.2812 18.2926 57.2812 19.5455V20.3217C57.0884 20.47 56.904 20.6331 56.7378 20.8194L45.6871 33.1818H25.7968C25.2355 33.1818 24.7812 33.6901 24.7812 34.3182C24.7812 34.9464 25.2355 35.4546 25.7968 35.4546H44.0576L43.0823 40.9134C43.0149 41.2863 43.12 41.6714 43.3601 41.9399C43.5525 42.1552 43.8123 42.2728 44.0782 42.2728C44.1437 42.2728 44.2111 42.265 44.2765 42.2506L49.3527 41.1142C49.551 41.0698 49.7316 40.9622 49.8724 40.8035L57.2812 32.5151V49.0909ZM48.6544 38.9535L45.3735 39.6882L46.0301 36.0128L55.2496 25.6973L57.8762 28.6362L48.6544 38.9535ZM60.8002 25.3649L59.3125 27.0295L56.6856 24.0903L58.1738 22.4252C58.5189 22.0401 58.997 21.8182 59.487 21.8182C60.5106 21.8182 61.3437 22.7503 61.3437 23.8956C61.3438 24.4416 61.1454 24.9776 60.8002 25.3649Z" fill="white"/>
</svg>
