<svg width="62" height="62" viewBox="0 0 62 62" fill="none" xmlns="http://www.w3.org/2000/svg">
<g clip-path="url(#clip0)">
<path d="M30.9518 0C20.8958 0 12.7148 8.18092 12.7148 18.2369V43.7631C12.7148 53.8191 20.8958 62 30.9518 62C41.0077 62 49.1887 53.8191 49.1887 43.7631V18.2369C49.1887 8.18092 41.0077 0 30.9518 0ZM45.4688 43.7631C45.4688 51.7676 38.9562 58.2802 30.9518 58.2802C22.9473 58.2802 16.4347 51.7676 16.4347 43.7631V18.2369C16.4347 10.2324 22.9473 3.71985 30.9518 3.71985C38.9562 3.71985 45.4688 10.2324 45.4688 18.2369V43.7631Z" fill="white"/>
<path d="M30.9522 12.3336C29.9248 12.3336 29.0923 13.1661 29.0923 14.1935V22.7543C29.0923 23.7812 29.9248 24.6142 30.9522 24.6142C31.9791 24.6142 32.8121 23.7812 32.8121 22.7543V14.1935C32.8121 13.1661 31.9796 12.3336 30.9522 12.3336Z" fill="white"/>
</g>
<defs>
<clipPath id="clip0">
<rect width="62" height="62" fill="white"/>
</clipPath>
</defs>
</svg>
