<svg width="16" height="18" viewBox="0 0 16 18" fill="none" xmlns="http://www.w3.org/2000/svg">
<g clip-path="url(#clip0)">
<path d="M15.5972 13.2102L13.3597 10.6982C12.5606 9.80111 11.202 10.16 10.8824 11.3262C10.6427 12.1337 9.84353 12.5822 9.12432 12.4028C7.52607 11.9542 5.36844 9.62168 4.96888 7.73772C4.72914 6.93027 5.20861 6.03314 5.92783 5.76404C6.96669 5.40519 7.28634 3.88007 6.48721 2.98295L4.24967 0.470991C3.61037 -0.156997 2.65142 -0.156997 2.09203 0.470991L0.573699 2.17553C-0.944635 3.96978 0.733524 8.72455 4.4894 12.941C8.24528 17.1575 12.4806 19.1313 14.0789 17.337L15.5972 15.6324C16.1566 14.9147 16.1566 13.8382 15.5972 13.2102Z" fill="#C58264"/>
</g>
<defs>
<clipPath id="clip0">
<rect width="16" height="18" fill="white"/>
</clipPath>
</defs>
</svg>
